# xmcd CD database file generated by LOLA_Freedb v0.9beta0
# 
# Track frame offsets:
#      150
#      15757
#      31257
#      46848
# 
# Disc length: 666 seconds
# 
# Revision: 0 
# Processed by: cddbd v1.5.2PL0 Copyright (c) Steve Scherf et al.
# Submitted via: LOLA_Freedb v0.9beta0
# 
DISCID=1c029804
DTITLE=Tom Krause and Do  Unidet - Amarillo- der Fansong
DYEAR=1900
DGENRE=
TTITLE0=Tom Krause - Sha La La La...
TTITLE1=
TTITLE2=
TTITLE3=
EXTD=
EXTT0=
EXTT1=
EXTT2=
EXTT3=
PLAYORDER=
